<svg width="29" height="29" viewBox="0 0 29 29" fill="none" xmlns="http://www.w3.org/2000/svg">
<g filter="url(#filter0_d_9_1634)">
<path fill-rule="evenodd" clip-rule="evenodd" d="M27.2426 13.4761L24.4541 14.2653C24.2236 15.4729 23.7534 16.5953 23.0948 17.5813L24.5112 20.1159C24.7338 20.5142 24.6647 21.0118 24.3421 21.3344C24.0195 21.6571 23.5218 21.7261 23.1236 21.5036L20.5911 20.0884C19.6035 20.7499 18.4784 21.2223 17.2679 21.4538L16.4742 24.2579C16.35 24.6969 15.9493 25 15.493 25C15.0368 25 14.6361 24.6969 14.5118 24.2579L13.7106 21.427C12.5245 21.1815 11.4233 20.7041 10.4564 20.0442L7.87342 21.4877C7.47514 21.7103 6.9775 21.6412 6.65488 21.3186C6.33227 20.996 6.2632 20.4983 6.48577 20.1L7.95055 17.4789C7.33275 16.5262 6.88908 15.4502 6.6646 14.2958L3.74201 13.4687C3.30301 13.3444 2.99995 12.9437 2.99995 12.4875C2.99995 12.0312 3.30301 11.6305 3.74201 11.5063L6.6944 10.6707C6.93332 9.54243 7.38225 8.49173 7.99835 7.5614L6.49384 4.86912C6.27128 4.47085 6.34034 3.9732 6.66296 3.65059C6.98557 3.32798 7.48322 3.25891 7.88149 3.48148L10.5773 4.98794C11.507 4.37507 12.5563 3.92891 13.6827 3.69201L14.5176 0.742143C14.6418 0.303142 15.0425 8.90797e-05 15.4988 8.90996e-05C15.955 8.91196e-05 16.3558 0.303142 16.48 0.742143L17.3078 3.66718C18.4611 3.89311 19.536 4.33787 20.4875 4.95647L23.1124 3.48961C23.5107 3.26705 24.0083 3.33611 24.3309 3.65873C24.6535 3.98134 24.7226 4.47899 24.5 4.87726L23.052 7.46839C23.7089 8.43414 24.184 9.53346 24.4281 10.7172L27.2426 11.5137C27.6816 11.638 27.9846 12.0387 27.9846 12.4949C27.9846 12.9512 27.6816 13.3519 27.2426 13.4761ZM8.99628 12.5565C8.99628 8.93343 11.9334 5.99636 15.5564 5.99636C19.1795 5.99636 22.1166 8.93343 22.1166 12.5565C22.1166 16.1796 19.1795 19.1166 15.5564 19.1166C11.9334 19.1166 8.99628 16.1796 8.99628 12.5565Z" fill="#EEF4F6"/>
</g>
<defs>
<filter id="filter0_d_9_1634" x="0" y="6.10352e-05" width="28.9846" height="28.9999" filterUnits="userSpaceOnUse" color-interpolation-filters="sRGB">
<feFlood flood-opacity="0" result="BackgroundImageFix"/>
<feColorMatrix in="SourceAlpha" type="matrix" values="0 0 0 0 0 0 0 0 0 0 0 0 0 0 0 0 0 0 127 0" result="hardAlpha"/>
<feOffset dx="-1" dy="2"/>
<feGaussianBlur stdDeviation="1"/>
<feComposite in2="hardAlpha" operator="out"/>
<feColorMatrix type="matrix" values="0 0 0 0 0 0 0 0 0 0 0 0 0 0 0 0 0 0 0.25 0"/>
<feBlend mode="normal" in2="BackgroundImageFix" result="effect1_dropShadow_9_1634"/>
<feBlend mode="normal" in="SourceGraphic" in2="effect1_dropShadow_9_1634" result="shape"/>
</filter>
</defs>
</svg>
