<svg width="34" height="34" viewBox="0 0 34 34" fill="none" xmlns="http://www.w3.org/2000/svg">
<g filter="url(#filter0_d_9_1646)">
<rect x="3" width="18" height="30" rx="3" fill="#FE9016"/>
</g>
<g filter="url(#filter1_d_9_1646)">
<path d="M23.1687 19.2808L27.275 15.4213L12.036 15.4213C11.5347 15.4213 11 14.9494 11 14.4461C11 14.0057 11.4345 13.5024 12.0026 13.5024L27.275 13.5024L23.1687 9.64291C22.7677 9.26543 22.7899 8.68001 23.1687 8.29028C23.5828 7.86429 24.3718 7.94425 24.7395 8.29028L30.2494 13.471C30.2494 13.471 31 14.1497 31 14.4611C31 14.7725 30.2494 15.4213 30.2494 15.4213L24.7395 20.602C24.2047 21.1053 23.67 21.1368 23.1353 20.6649C22.7354 20.312 22.7343 19.6898 23.1687 19.2808Z" fill="#EEF4F6"/>
<path d="M23.0659 19.1716L23.066 19.1715L26.8964 15.5713L12.036 15.5713C11.7405 15.5713 11.4466 15.4338 11.2284 15.2328C11.0104 15.0319 10.85 14.7507 10.85 14.4461C10.85 14.1789 10.98 13.9067 11.1818 13.7034C11.3854 13.4985 11.6729 13.3524 12.0026 13.3524L26.8964 13.3524L23.066 9.75221L23.0659 9.75214C22.597 9.31076 22.6307 8.62854 23.0612 8.18573C23.3055 7.9344 23.652 7.83986 23.9766 7.85086C24.2999 7.86181 24.6265 7.978 24.8422 8.181L23.0659 19.1716ZM23.0659 19.1716C22.5742 19.6344 22.5629 20.3598 23.0361 20.7774C23.3232 21.0307 23.6269 21.163 23.944 21.149C24.2592 21.1351 24.559 20.9778 24.8423 20.7112L30.3501 15.5326L30.3501 15.5325L30.3569 15.5266L30.3817 15.5046C30.4029 15.4857 30.433 15.4584 30.4691 15.4247C30.5411 15.3575 30.6375 15.2641 30.7344 15.1603C30.8307 15.0571 30.9305 14.9402 31.0072 14.8262C31.0788 14.7197 31.15 14.5878 31.15 14.4611C31.15 14.3352 31.0795 14.2016 31.0082 14.0928C30.9319 13.9763 30.8324 13.8558 30.7362 13.749C30.6395 13.6414 30.5432 13.5444 30.4713 13.4744C30.4353 13.4394 30.4052 13.4109 30.3841 13.3911L30.3593 13.3682L30.3526 13.3621L30.3522 13.3617L30.3508 13.3604L30.3503 13.3599L30.3501 13.3598L30.3501 13.3598L24.8423 8.18105L23.0659 19.1716Z" stroke="#EEF4F6" stroke-width="0.3"/>
</g>
<defs>
<filter id="filter0_d_9_1646" x="0" y="0" width="22" height="34" filterUnits="userSpaceOnUse" color-interpolation-filters="sRGB">
<feFlood flood-opacity="0" result="BackgroundImageFix"/>
<feColorMatrix in="SourceAlpha" type="matrix" values="0 0 0 0 0 0 0 0 0 0 0 0 0 0 0 0 0 0 127 0" result="hardAlpha"/>
<feOffset dx="-1" dy="2"/>
<feGaussianBlur stdDeviation="1"/>
<feComposite in2="hardAlpha" operator="out"/>
<feColorMatrix type="matrix" values="0 0 0 0 0 0 0 0 0 0 0 0 0 0 0 0 0 0 0.25 0"/>
<feBlend mode="normal" in2="BackgroundImageFix" result="effect1_dropShadow_9_1646"/>
<feBlend mode="normal" in="SourceGraphic" in2="effect1_dropShadow_9_1646" result="shape"/>
</filter>
<filter id="filter1_d_9_1646" x="8.69995" y="5.70001" width="24.6001" height="17.6" filterUnits="userSpaceOnUse" color-interpolation-filters="sRGB">
<feFlood flood-opacity="0" result="BackgroundImageFix"/>
<feColorMatrix in="SourceAlpha" type="matrix" values="0 0 0 0 0 0 0 0 0 0 0 0 0 0 0 0 0 0 127 0" result="hardAlpha"/>
<feOffset/>
<feGaussianBlur stdDeviation="1"/>
<feComposite in2="hardAlpha" operator="out"/>
<feColorMatrix type="matrix" values="0 0 0 0 0 0 0 0 0 0 0 0 0 0 0 0 0 0 1 0"/>
<feBlend mode="normal" in2="BackgroundImageFix" result="effect1_dropShadow_9_1646"/>
<feBlend mode="normal" in="SourceGraphic" in2="effect1_dropShadow_9_1646" result="shape"/>
</filter>
</defs>
</svg>
