<svg width="24" height="23" viewBox="0 0 24 23" fill="none" xmlns="http://www.w3.org/2000/svg">
<g filter="url(#filter0_d_9_1618)">
<path fill-rule="evenodd" clip-rule="evenodd" d="M7.322 4.78011H7.70789C7.97433 2.09618 10.2388 0 12.9928 0C15.7469 0 18.0113 2.09618 18.2778 4.78011H18.7114C19.1747 4.78712 19.4812 4.82269 19.6902 5.00318C19.9107 5.19366 20.3472 6.61364 20.6623 7.74551L22.6527 15.0547L22.6148 14.9302C22.6312 14.9843 22.6472 15.0382 22.6628 15.092L22.7823 15.5308C23.0499 16.5913 23.1226 17.5424 22.7 18.0766C22.4228 18.427 22.0371 18.5498 21.6065 18.5891H4.39355C3.96295 18.5498 3.5772 18.427 3.29997 18.0766C2.89379 17.5631 2.94518 16.6644 3.18749 15.6535L5.71574 6.5689C5.95428 5.80074 6.19654 5.1299 6.34326 5.00318C6.55222 4.82269 6.85876 4.78712 7.322 4.78011ZM12.9955 0.902832C15.2298 0.902832 17.067 2.60295 17.284 4.78011H8.70695C8.92399 2.60295 10.7612 0.902832 12.9955 0.902832ZM10.1195 8.65721C10.4861 8.65721 10.7834 8.35998 10.7834 7.99332C10.7834 7.62666 10.4861 7.32943 10.1195 7.32943C9.75283 7.32943 9.4556 7.62666 9.4556 7.99332C9.4556 8.35998 9.75283 8.65721 10.1195 8.65721ZM16.546 7.99332C16.546 8.35998 16.2487 8.65721 15.8821 8.65721C15.5154 8.65721 15.2182 8.35998 15.2182 7.99332C15.2182 7.62666 15.5154 7.32943 15.8821 7.32943C16.2487 7.32943 16.546 7.62666 16.546 7.99332Z" fill="#EEF4F6"/>
</g>
<defs>
<filter id="filter0_d_9_1618" x="0" y="0" width="24" height="22.5891" filterUnits="userSpaceOnUse" color-interpolation-filters="sRGB">
<feFlood flood-opacity="0" result="BackgroundImageFix"/>
<feColorMatrix in="SourceAlpha" type="matrix" values="0 0 0 0 0 0 0 0 0 0 0 0 0 0 0 0 0 0 127 0" result="hardAlpha"/>
<feOffset dx="-1" dy="2"/>
<feGaussianBlur stdDeviation="1"/>
<feComposite in2="hardAlpha" operator="out"/>
<feColorMatrix type="matrix" values="0 0 0 0 0 0 0 0 0 0 0 0 0 0 0 0 0 0 0.25 0"/>
<feBlend mode="normal" in2="BackgroundImageFix" result="effect1_dropShadow_9_1618"/>
<feBlend mode="normal" in="SourceGraphic" in2="effect1_dropShadow_9_1618" result="shape"/>
</filter>
</defs>
</svg>
