<svg width="404" height="96" viewBox="0 0 404 96" fill="none" xmlns="http://www.w3.org/2000/svg">
<g filter="url(#filter0_d_59_804)">
<path fill-rule="evenodd" clip-rule="evenodd" d="M205.477 6.15674H233.65C251.618 6.15674 262.044 15.4737 262.044 30.1146C262.044 44.7555 250.509 54.0724 233.65 54.0724H221.005V83.7978H205.477V38.1005H205.477V6.15674ZM221.006 18.5776H233.601C241.633 18.5776 246.295 22.9773 246.295 29.8911C246.295 36.8048 242.523 41.2044 233.601 41.2044H221.006V18.5776Z" fill="#FE9016"/>
<path fill-rule="evenodd" clip-rule="evenodd" d="M293.152 6.15674H264.98V38.1005H264.98V83.7978H280.508V54.0724H288.179L304.906 83.7066H322.978L304.65 52.4042C315.037 49.1076 321.547 41.1135 321.547 30.1146C321.547 15.4737 311.121 6.15674 293.152 6.15674ZM293.103 18.5776H280.508V41.2044H293.103C302.026 41.2044 305.797 36.8048 305.797 29.8911C305.797 22.9773 301.136 18.5776 293.103 18.5776Z" fill="#FE9016"/>
<path fill-rule="evenodd" clip-rule="evenodd" d="M363.083 84.6829C384.889 84.6829 402.567 66.9556 402.567 45.0879C402.567 23.2202 384.889 5.49292 363.083 5.49292C341.276 5.49292 323.598 23.2202 323.598 45.0879C323.598 66.9556 341.276 84.6829 363.083 84.6829ZM363.083 71.6323C376.216 71.6323 386.862 59.8471 386.862 45.3094C386.862 30.7717 376.216 18.9865 363.083 18.9865C349.95 18.9865 339.304 30.7717 339.304 45.3094C339.304 59.8471 349.95 71.6323 363.083 71.6323Z" fill="#FE9016"/>
</g>
<g filter="url(#filter1_d_59_804)">
<path d="M2.56683 5.27478L6.71222 1.12939V88.1133L196.018 87.9061L191.898 92.0515H2.56683V5.27478Z" fill="#FE9016"/>
<rect x="6.71228" y="1.12939" width="189.331" height="86.7767" fill="#EEF4F6"/>
<rect x="10.9717" y="5.07397" width="181.442" height="78.8879" fill="#343C3F"/>
<path d="M38.6615 15.4089H33.0605V34.8942C33.0605 34.8942 33.0549 38.1105 30.2994 38.2864C26.5917 38.5231 26.8054 34.4998 26.8054 34.4998L21.3062 34.5787C21.3062 40.3375 24.9755 43.2564 30.2994 43.2564C38.9771 43.2564 38.6615 34.8942 38.6615 34.8942V15.4089Z" fill="#EEF4F6"/>
<path fill-rule="evenodd" clip-rule="evenodd" d="M56.8059 43.414C59.6419 43.414 62.1819 42.0551 63.9844 39.8973V42.9414H69.5065V21.0106H63.9844V24.2111C62.1819 22.0533 59.6419 20.6943 56.8059 20.6943C51.2727 20.6943 46.7872 24.7965 46.7872 32.0542C46.7872 38.9174 51.2727 43.414 56.8059 43.414ZM58.3275 38.5224C61.5643 38.5224 64.1421 35.5766 64.1421 32.0536C64.1421 28.5306 61.5643 25.5848 58.3275 25.5848C55.0906 25.5848 52.4667 27.9208 52.4667 32.0536C52.4667 35.9619 55.0906 38.5224 58.3275 38.5224Z" fill="#EEF4F6"/>
<path fill-rule="evenodd" clip-rule="evenodd" d="M98.2217 32.1731C98.222 32.1335 98.2222 32.0939 98.2222 32.0542L98.2219 31.9577C98.2218 31.9713 98.2218 31.9848 98.2217 31.9982V32.1731ZM87.5364 43.414C92.4905 43.414 96.5104 40.4384 97.7926 35.5337C97.786 35.5563 97.7823 35.5678 97.7823 35.5678H91.866C91.1976 37.4227 89.8358 38.5237 87.5138 38.5237C83.9433 38.5237 82.3655 35.9319 82.3655 31.976C82.3655 28.2683 84.0222 25.4283 87.5138 25.4283C89.6743 25.4283 91.1311 26.4978 91.8539 28.4691H97.7915C97.7915 28.4691 97.7994 28.493 97.8131 28.5416C96.5538 23.4874 92.5172 20.6943 87.5364 20.6943C81.5002 20.6943 76.6069 24.7965 76.6069 32.0542C76.6069 38.9174 81.5002 43.414 87.5364 43.414Z" fill="#EEF4F6"/>
<path fill-rule="evenodd" clip-rule="evenodd" d="M110.529 13.7515H105.006V42.94H110.529V33.6194L117.944 42.94L125.123 42.94L115.42 32.0535L125.044 21.0881L117.865 21.0881L110.529 30.3591V13.7515Z" fill="#EEF4F6"/>
<path fill-rule="evenodd" clip-rule="evenodd" d="M151.466 33.6327C151.522 33.1225 151.55 32.596 151.55 32.0542C151.55 24.7965 146.833 20.6943 140.709 20.6943C134.584 20.6943 129.619 24.7965 129.619 32.0542C129.619 38.9174 134.584 43.414 140.709 43.414C145.546 43.414 149.506 40.6578 150.956 36.0782H145.058C144.414 37.3663 143.141 38.682 140.623 38.682C135.69 38.682 135.299 33.6332 135.299 33.6332H143.661V33.6327H151.466ZM145.87 30.005C145.87 30.005 145.712 25.2717 140.742 25.2717C135.772 25.2717 135.378 30.005 135.378 30.005H145.87Z" fill="#EEF4F6"/>
<path fill-rule="evenodd" clip-rule="evenodd" d="M174.427 13.5947H179.949V42.941H174.427V39.8978C172.625 42.0556 170.085 43.4145 167.249 43.4145C161.716 43.4145 157.23 38.9179 157.23 32.0547C157.23 24.797 161.716 20.6948 167.249 20.6948C170.085 20.6948 172.625 22.0537 174.427 24.2116V13.5947ZM168.77 38.5224C172.007 38.5224 174.585 35.5766 174.585 32.0536C174.585 28.5306 172.007 25.5848 168.77 25.5848C165.534 25.5848 162.91 27.9208 162.91 32.0536C162.91 35.9619 165.534 38.5224 168.77 38.5224Z" fill="#EEF4F6"/>
<path fill-rule="evenodd" clip-rule="evenodd" d="M19.0183 48.9358H29.0371C35.427 48.9358 39.1348 52.2491 39.1348 57.4557C39.1348 62.6623 35.0326 65.9756 29.0371 65.9756H24.5403V76.5467H19.0182V60.2958H19.0183V48.9358ZM24.5404 53.3533H29.0193C31.876 53.3533 33.5336 54.9179 33.5336 57.3766C33.5336 59.8353 32.1925 61.3999 29.0193 61.3999H24.5404V53.3533Z" fill="#EEF4F6"/>
<rect x="45.84" y="47.3574" width="5.52215" height="29.1885" fill="#EEF4F6"/>
<path fill-rule="evenodd" clip-rule="evenodd" d="M68.1657 76.8616C71.002 76.8616 73.5423 75.5023 75.3448 73.344V76.3886H80.867V54.4578H75.3448V57.6594C73.5423 55.5011 71.002 54.1418 68.1657 54.1418C62.6325 54.1418 58.147 58.244 58.147 65.5017C58.147 72.3649 62.6325 76.8616 68.1657 76.8616ZM69.6879 71.9698C72.9247 71.9698 75.5025 69.024 75.5025 65.501C75.5025 61.978 72.9247 59.0322 69.6879 59.0322C66.4511 59.0322 63.8271 61.3681 63.8271 65.501C63.8271 69.4092 66.4511 71.9698 69.6879 71.9698Z" fill="#EEF4F6"/>
<path fill-rule="evenodd" clip-rule="evenodd" d="M94.5931 63.7919V76.3907H89.071V54.6177H94.5931V57.3125C95.4452 56.156 97.5699 54.1314 101.93 54.3013C106.581 54.4825 109.897 58.0879 109.897 63.6101V76.3899H104.375V64.0045C104.375 61.3224 102.719 59.0346 99.4052 59.0346C95.7939 59.0346 94.8363 61.59 94.5931 63.7919Z" fill="#EEF4F6"/>
<path fill-rule="evenodd" clip-rule="evenodd" d="M123.466 63.7919V76.3907H117.944V54.6177H123.466V57.3125C124.318 56.156 126.443 54.1314 130.802 54.3013C135.453 54.4825 138.77 58.0879 138.77 63.6101V76.3899H133.248V64.0045C133.248 61.3224 131.591 59.0346 128.278 59.0346C124.667 59.0346 123.709 61.59 123.466 63.7919Z" fill="#EEF4F6"/>
<path fill-rule="evenodd" clip-rule="evenodd" d="M167.085 67.2397C167.141 66.7296 167.17 66.2033 167.17 65.6616C167.17 58.4039 162.453 54.3018 156.328 54.3018C150.204 54.3018 145.239 58.4039 145.239 65.6616C145.239 72.5249 150.204 77.0215 156.328 77.0215C161.166 77.0215 165.126 74.265 166.576 69.6852H160.678C160.035 70.9734 158.761 72.2894 156.243 72.2894C151.311 72.2894 150.919 67.2405 150.919 67.2405H159.282V67.2397H167.085ZM161.49 63.6094C161.49 63.6094 161.332 58.8761 156.362 58.8761C151.392 58.8761 150.998 63.6094 150.998 63.6094H161.49Z" fill="#EEF4F6"/>
<path fill-rule="evenodd" clip-rule="evenodd" d="M179.318 64.8907V76.3863H173.796V54.6133H179.318V57.9458C179.799 57.2926 180.46 56.5599 181.369 55.7961C183.341 54.1395 186.102 54.2973 186.102 54.2973V60.135C186.102 60.135 183.105 59.8807 181.369 60.8449C180.051 61.5772 179.515 63.278 179.318 64.8907Z" fill="#EEF4F6"/>
</g>
<defs>
<filter id="filter0_d_59_804" x="202.477" y="5.49292" width="201.09" height="83.1899" filterUnits="userSpaceOnUse" color-interpolation-filters="sRGB">
<feFlood flood-opacity="0" result="BackgroundImageFix"/>
<feColorMatrix in="SourceAlpha" type="matrix" values="0 0 0 0 0 0 0 0 0 0 0 0 0 0 0 0 0 0 127 0" result="hardAlpha"/>
<feOffset dx="-1" dy="2"/>
<feGaussianBlur stdDeviation="1"/>
<feComposite in2="hardAlpha" operator="out"/>
<feColorMatrix type="matrix" values="0 0 0 0 0 0 0 0 0 0 0 0 0 0 0 0 0 0 0.25 0"/>
<feBlend mode="normal" in2="BackgroundImageFix" result="effect1_dropShadow_59_804"/>
<feBlend mode="normal" in="SourceGraphic" in2="effect1_dropShadow_59_804" result="shape"/>
</filter>
<filter id="filter1_d_59_804" x="0.566833" y="0.129395" width="197.476" height="94.9221" filterUnits="userSpaceOnUse" color-interpolation-filters="sRGB">
<feFlood flood-opacity="0" result="BackgroundImageFix"/>
<feColorMatrix in="SourceAlpha" type="matrix" values="0 0 0 0 0 0 0 0 0 0 0 0 0 0 0 0 0 0 127 0" result="hardAlpha"/>
<feOffset dy="1"/>
<feGaussianBlur stdDeviation="1"/>
<feComposite in2="hardAlpha" operator="out"/>
<feColorMatrix type="matrix" values="0 0 0 0 0 0 0 0 0 0 0 0 0 0 0 0 0 0 0.45 0"/>
<feBlend mode="normal" in2="BackgroundImageFix" result="effect1_dropShadow_59_804"/>
<feBlend mode="normal" in="SourceGraphic" in2="effect1_dropShadow_59_804" result="shape"/>
</filter>
</defs>
</svg>
