<svg width="404" height="192" viewBox="0 0 404 192" fill="none" xmlns="http://www.w3.org/2000/svg">
<g filter="url(#filter0_d_4_147)">
<path d="M2 9.57031L10.5703 1V180.834L401.948 180.405L393.43 188.976H2V9.57031Z" fill="#FE9016"/>
<rect x="10.5704" y="1" width="391.43" height="179.405" fill="#EEF4F6"/>
<rect x="19.3774" y="9.1552" width="375.12" height="163.096" fill="#343C3F"/>
<path d="M76.6238 30.5209H65.044V70.8055C65.044 70.8055 65.0324 77.455 59.3357 77.8186C51.6702 78.3079 52.1121 69.99 52.1121 69.99L40.7428 70.1531C40.7428 82.0591 48.3288 88.0936 59.3357 88.0936C77.2762 88.0936 76.6238 70.8055 76.6238 70.8055V30.5209Z" fill="#EEF4F6"/>
<path fill-rule="evenodd" clip-rule="evenodd" d="M114.136 88.4201C120 88.4201 125.251 85.6103 128.978 81.1488V87.4428H140.395V42.1022H128.978V48.7199C125.251 44.2583 120 41.4486 114.136 41.4486C102.697 41.4486 93.4232 49.9295 93.4232 64.9343C93.4232 79.1237 102.697 88.4201 114.136 88.4201ZM117.283 78.3065C123.975 78.3065 129.304 72.2163 129.304 64.9327C129.304 57.6491 123.975 51.5589 117.283 51.5589C110.591 51.5589 105.166 56.3883 105.166 64.9327C105.166 73.0127 110.591 78.3065 117.283 78.3065Z" fill="#EEF4F6"/>
<path fill-rule="evenodd" clip-rule="evenodd" d="M177.669 88.4201C187.91 88.4201 196.22 82.2704 198.872 72.1335C198.859 72.1762 198.853 72.1979 198.853 72.1979H186.621C185.239 76.0326 182.423 78.3087 177.623 78.3087C170.241 78.3087 166.979 72.9503 166.979 64.7718C166.979 57.1063 170.404 51.2348 177.623 51.2348C182.09 51.2348 185.102 53.4461 186.596 57.5218H198.872C198.872 57.5218 198.886 57.5664 198.912 57.6569C196.304 47.2173 187.962 41.4486 177.669 41.4486C165.19 41.4486 155.073 49.9295 155.073 64.9343C155.073 79.1237 165.19 88.4201 177.669 88.4201Z" fill="#EEF4F6"/>
<path fill-rule="evenodd" clip-rule="evenodd" d="M225.204 27.0949H213.788V87.4403H225.204V68.1715L240.535 87.4408L255.377 87.4408L235.316 64.9335L255.214 42.2632L240.372 42.2633L225.204 61.43V27.0949Z" fill="#EEF4F6"/>
<path fill-rule="evenodd" clip-rule="evenodd" d="M309.839 68.1968C309.955 67.1423 310.014 66.0542 310.014 64.9343C310.014 49.9295 300.261 41.4486 287.599 41.4486C274.938 41.4486 264.673 49.9295 264.673 64.9343C264.673 79.1237 274.938 88.4201 287.599 88.4201C297.601 88.4201 305.788 82.7213 308.786 73.2528H296.592C295.262 75.9159 292.629 78.6362 287.423 78.6362C277.225 78.6362 276.416 68.1981 276.416 68.1981H293.704V68.1968H309.839ZM298.271 60.6965C298.271 60.6965 297.945 50.9108 287.67 50.9108C277.395 50.9108 276.579 60.6965 276.579 60.6965H298.271Z" fill="#EEF4F6"/>
<path fill-rule="evenodd" clip-rule="evenodd" d="M357.312 26.7706H368.728V87.4422H357.312V81.1492C353.585 85.6109 348.334 88.4208 342.47 88.4208C331.031 88.4208 321.757 79.1243 321.757 64.935C321.757 49.9302 331.031 41.4492 342.47 41.4492C348.334 41.4492 353.585 44.2591 357.312 48.7207V26.7706ZM345.617 78.3067C352.309 78.3067 357.638 72.2164 357.638 64.9328C357.638 57.6492 352.309 51.559 345.617 51.559C338.925 51.559 333.5 56.3884 333.5 64.9328C333.5 73.0128 338.925 78.3067 345.617 78.3067Z" fill="#EEF4F6"/>
<path fill-rule="evenodd" clip-rule="evenodd" d="M36.0131 99.8363H56.7263C69.937 99.8363 77.6025 106.686 77.6025 117.451C77.6025 128.215 69.1216 135.065 56.7263 135.065H47.4298V156.92H36.0131V123.322H36.0131V99.8363ZM47.4298 123.322L47.4298 125.604H56.6898C63.2501 125.604 66.0227 122.37 66.0227 117.287C66.0227 112.203 62.5958 108.969 56.6898 108.969H47.4298L47.4298 123.322Z" fill="#EEF4F6"/>
<rect x="91.4658" y="96.5746" width="11.4167" height="60.3454" fill="#EEF4F6"/>
<path fill-rule="evenodd" clip-rule="evenodd" d="M137.622 157.571C143.485 157.571 148.737 154.761 152.464 150.3V156.594H163.88V111.253H152.464V117.872C148.737 113.41 143.485 110.6 137.622 110.6C126.182 110.6 116.909 119.081 116.909 134.086C116.909 148.275 126.182 157.571 137.622 157.571ZM140.768 147.457C147.46 147.457 152.79 141.366 152.79 134.083C152.79 126.799 147.46 120.709 140.768 120.709C134.076 120.709 128.652 125.538 128.652 134.083C128.652 142.163 134.076 147.457 140.768 147.457Z" fill="#EEF4F6"/>
<path fill-rule="evenodd" clip-rule="evenodd" d="M192.259 130.554V156.599H180.842V111.584H192.259V117.157C194.02 114.766 198.413 110.58 207.427 110.931C217.042 111.306 223.899 118.76 223.899 130.177V156.598H212.483V130.992C212.483 125.447 209.058 120.717 202.208 120.717C194.741 120.717 192.761 126.002 192.259 130.554Z" fill="#EEF4F6"/>
<path fill-rule="evenodd" clip-rule="evenodd" d="M251.952 130.555V156.599H240.535V111.584H251.952V117.157C253.713 114.766 258.106 110.58 267.12 110.931C276.735 111.306 283.592 118.76 283.592 130.177V156.598H272.176V130.992C272.176 125.447 268.751 120.717 261.901 120.717C254.433 120.717 252.454 126.002 251.952 130.555Z" fill="#EEF4F6"/>
<path fill-rule="evenodd" clip-rule="evenodd" d="M342.132 137.678C342.247 136.624 342.307 135.536 342.307 134.416C342.307 119.411 332.554 110.93 319.892 110.93C307.23 110.93 296.966 119.411 296.966 134.416C296.966 148.605 307.23 157.902 319.892 157.902C329.894 157.902 338.081 152.203 341.079 142.734H328.885C327.555 145.397 324.922 148.118 319.716 148.118C309.518 148.118 308.709 137.68 308.709 137.68H325.997V137.678H342.132ZM330.564 130.173C330.564 130.173 330.238 120.387 319.963 120.387C309.688 120.387 308.872 130.173 308.872 130.173H330.564Z" fill="#EEF4F6"/>
<path fill-rule="evenodd" clip-rule="evenodd" d="M367.423 132.827V156.591H356.007V111.576H367.423V118.466C368.417 117.115 369.784 115.6 371.664 114.021C375.741 110.596 381.45 110.922 381.45 110.922V122.991C381.45 122.991 375.252 122.466 371.664 124.459C368.938 125.974 367.829 129.492 367.423 132.827Z" fill="#EEF4F6"/>
</g>
<defs>
<filter id="filter0_d_4_147" x="0" y="0" width="404" height="191.976" filterUnits="userSpaceOnUse" color-interpolation-filters="sRGB">
<feFlood flood-opacity="0" result="BackgroundImageFix"/>
<feColorMatrix in="SourceAlpha" type="matrix" values="0 0 0 0 0 0 0 0 0 0 0 0 0 0 0 0 0 0 127 0" result="hardAlpha"/>
<feOffset dy="1"/>
<feGaussianBlur stdDeviation="1"/>
<feComposite in2="hardAlpha" operator="out"/>
<feColorMatrix type="matrix" values="0 0 0 0 0 0 0 0 0 0 0 0 0 0 0 0 0 0 0.45 0"/>
<feBlend mode="normal" in2="BackgroundImageFix" result="effect1_dropShadow_4_147"/>
<feBlend mode="normal" in="SourceGraphic" in2="effect1_dropShadow_4_147" result="shape"/>
</filter>
</defs>
</svg>
