<svg width="216" height="216" viewBox="0 0 216 216" fill="none" xmlns="http://www.w3.org/2000/svg">
<path fill-rule="evenodd" clip-rule="evenodd" d="M0.398926 14.3416C0.398926 6.60957 6.66694 0.341553 14.3989 0.341553H201.592C209.324 0.341553 215.592 6.60957 215.592 14.3416V201.534C215.592 209.266 209.324 215.534 201.592 215.534H14.3989C6.66694 215.534 0.398926 209.266 0.398926 201.534V14.3416ZM18.7317 17.9082H195.654V58.0609H18.7317V17.9082ZM68.0991 106.921C73.622 106.921 78.0991 102.444 78.0991 96.9207C78.0991 91.3978 73.622 86.9207 68.0991 86.9207C62.5763 86.9207 58.0991 91.3978 58.0991 96.9207C58.0991 102.444 62.5763 106.921 68.0991 106.921ZM116.995 96.9207C116.995 102.444 112.518 106.921 106.995 106.921C101.473 106.921 96.9954 102.444 96.9954 96.9207C96.9954 91.3978 101.473 86.9207 106.995 86.9207C112.518 86.9207 116.995 91.3978 116.995 96.9207ZM145.891 106.921C151.414 106.921 155.891 102.444 155.891 96.9207C155.891 91.3978 151.414 86.9207 145.891 86.9207C140.369 86.9207 135.891 91.3978 135.891 96.9207C135.891 102.444 140.369 106.921 145.891 106.921ZM39.2031 136.086C39.2031 141.609 34.726 146.086 29.2031 146.086C23.6803 146.086 19.2031 141.609 19.2031 136.086C19.2031 130.563 23.6803 126.086 29.2031 126.086C34.726 126.086 39.2031 130.563 39.2031 136.086ZM68.0994 146.086C73.6222 146.086 78.0994 141.609 78.0994 136.086C78.0994 130.563 73.6222 126.086 68.0994 126.086C62.5765 126.086 58.0994 130.563 58.0994 136.086C58.0994 141.609 62.5765 146.086 68.0994 146.086ZM116.995 136.086C116.995 141.609 112.518 146.086 106.995 146.086C101.473 146.086 96.9954 141.609 96.9954 136.086C96.9954 130.563 101.473 126.086 106.995 126.086C112.518 126.086 116.995 130.563 116.995 136.086ZM29.2031 185.252C34.726 185.252 39.2031 180.775 39.2031 175.252C39.2031 169.729 34.726 165.252 29.2031 165.252C23.6803 165.252 19.2031 169.729 19.2031 175.252C19.2031 180.775 23.6803 185.252 29.2031 185.252ZM78.0994 175.252C78.0994 180.775 73.6222 185.252 68.0994 185.252C62.5765 185.252 58.0994 180.775 58.0994 175.252C58.0994 169.729 62.5765 165.252 68.0994 165.252C73.6222 165.252 78.0994 169.729 78.0994 175.252ZM106.995 185.252C112.518 185.252 116.995 180.775 116.995 175.252C116.995 169.729 112.518 165.252 106.995 165.252C101.473 165.252 96.9954 169.729 96.9954 175.252C96.9954 180.775 101.473 185.252 106.995 185.252ZM155.891 175.252C155.891 180.775 151.414 185.252 145.891 185.252C140.369 185.252 135.891 180.775 135.891 175.252C135.891 169.729 140.369 165.252 145.891 165.252C151.414 165.252 155.891 169.729 155.891 175.252ZM184.788 146.086C190.31 146.086 194.788 141.609 194.788 136.086C194.788 130.563 190.31 126.086 184.788 126.086C179.265 126.086 174.788 130.563 174.788 136.086C174.788 141.609 179.265 146.086 184.788 146.086ZM161.892 136.086C161.892 144.923 154.728 152.086 145.892 152.086C137.055 152.086 129.892 144.923 129.892 136.086C129.892 127.25 137.055 120.086 145.892 120.086C154.728 120.086 161.892 127.25 161.892 136.086ZM184.788 106.921C190.31 106.921 194.788 102.444 194.788 96.9207C194.788 91.3978 190.31 86.9207 184.788 86.9207C179.265 86.9207 174.788 91.3978 174.788 96.9207C174.788 102.444 179.265 106.921 184.788 106.921Z" fill="#EEF4F6"/>
</svg>
