<svg width="276" height="236" viewBox="0 0 276 236" fill="none" xmlns="http://www.w3.org/2000/svg">
<path fill-rule="evenodd" clip-rule="evenodd" d="M168.501 30.9441C168.501 47.7888 154.846 61.4441 138.001 61.4441C121.156 61.4441 107.501 47.7888 107.501 30.9441C107.501 14.0994 121.156 0.444092 138.001 0.444092C154.846 0.444092 168.501 14.0994 168.501 30.9441ZM182.437 125.723C181.792 117.883 180.743 109.069 179.036 101.144C174.325 79.2757 156.058 68.8822 137.943 69.128C119.827 68.8822 101.56 79.2757 96.8491 101.144C95.1421 109.069 94.093 117.883 93.4485 125.723C91.9528 135.873 91.4197 142.437 91.0571 147.92H58.6792V118.561C58.6792 113.453 54.5378 109.311 49.4292 109.311H47.6816C42.573 109.311 38.4316 113.453 38.4316 118.561V119.536C36.7352 117.469 34.1608 116.151 31.2783 116.151H29.5308C24.4221 116.151 20.2808 120.292 20.2808 125.401V147.92H9.06787C4.21655 147.92 0.283936 151.853 0.283936 156.704C0.283936 161.555 4.21655 165.488 9.06775 165.488H20.2808V188.008C20.2808 193.116 24.4221 197.258 29.5308 197.258H31.2783C34.1608 197.258 36.7352 195.939 38.4316 193.873V194.847C38.4316 199.956 42.573 204.097 47.6816 204.097H49.4292C54.5378 204.097 58.6792 199.956 58.6792 194.847V165.488H89.4834C88.2465 182.039 105.768 175.217 105.768 175.217C105.768 175.217 99.3898 207.092 99.3898 223.583C99.3898 238.267 114.767 239.73 118.817 228.553C119.846 225.714 120.875 221.886 121.913 217.523L122.053 218.613C122.053 218.613 130.812 170.33 137.943 167.673C145.073 170.33 153.832 218.613 153.832 218.613L153.972 217.523C155.01 221.886 156.039 225.714 157.068 228.553C161.118 239.73 176.495 238.267 176.495 223.583C176.495 207.092 170.117 175.217 170.117 175.217C170.117 175.217 187.639 182.039 186.402 165.488H217.323V194.847C217.323 199.956 221.464 204.097 226.573 204.097H228.32C233.429 204.097 237.57 199.956 237.57 194.847V193.873C239.267 195.939 241.841 197.258 244.724 197.258H246.471C251.58 197.258 255.721 193.116 255.721 188.008V165.488H266.817C271.669 165.488 275.601 161.555 275.601 156.704C275.601 151.853 271.669 147.92 266.817 147.92H255.721V125.401C255.721 120.292 251.58 116.151 246.471 116.151H244.724C241.841 116.151 239.267 117.469 237.57 119.536V118.561C237.57 113.453 233.429 109.311 228.32 109.311H226.573C221.464 109.311 217.323 113.453 217.323 118.561V147.92H184.828C184.465 142.437 183.932 135.873 182.437 125.723Z" fill="#EEF4F6"/>
</svg>
