<svg width="256" height="226" viewBox="0 0 256 226" fill="none" xmlns="http://www.w3.org/2000/svg">
<path fill-rule="evenodd" clip-rule="evenodd" d="M255.7 69.0598H236.105V204.752H74.4285C67.3131 204.752 61.8556 199.791 58.5188 195.421C55.28 191.179 52.4069 183.198 52.4069 183.198H207.203C212.384 183.198 216.511 178.712 216.511 173.89V40.6478C216.511 34.5191 210.281 27.9114 203.774 27.9114H57.3056V0.968966C57.3056 0.968966 34.1507 -3.72849 18.6064 11.7458C9.16459 21.1452 0.481445 33.7541 0.481445 45.6108L0.481636 84.259C0.481794 103.53 0.481931 120.396 0.481523 146.458C0.481376 155.9 8.05602 165.337 12.7281 170.461C18.5566 176.854 30.8529 183.198 30.8529 183.198C30.8529 183.198 34.8696 192.382 45.5488 212.1C49.9205 220.172 59.3614 225.081 69.0623 225.081H246.148C250.641 225.081 255.7 221.037 255.7 215.529V69.0598ZM195.937 165.073V48.4856H58.2856V101.391C58.2856 101.391 56.8832 107.759 51.9174 107.759C37.0506 107.759 20.1455 118.711 20.1455 135.772C20.1456 154.072 31.5064 165.073 41.1405 165.073H195.937ZM176.832 77.8774H129.315L146.461 95.0226C146.461 95.0226 133.763 112.168 129.315 112.168C125.685 112.168 121.208 106.607 116.225 100.417C113.534 97.0743 110.695 93.5475 107.762 90.6139C103.027 85.8794 95.7234 85.5068 90.6163 90.6139C87.6227 93.6075 85.1351 96.0951 82.78 98.4502C78.513 102.717 74.681 106.549 69.0624 112.168C64.0884 117.142 77.1652 131.538 82.7988 125.904C83.3845 125.319 83.9978 124.701 84.6309 124.063C90.2563 118.396 97.4317 111.168 100.454 111.168C102.764 111.168 107.945 117.176 112.764 122.764C114.961 125.312 117.084 127.773 118.824 129.538C128.562 139.409 136.365 132.816 139.643 129.538C148.204 120.977 159.707 108.759 159.707 108.759L176.832 125.884V77.8774Z" fill="#EEF4F6"/>
</svg>
