<svg width="280" height="255" viewBox="0 0 280 255" fill="none" xmlns="http://www.w3.org/2000/svg">
<path fill-rule="evenodd" clip-rule="evenodd" d="M20.7942 0.341064C9.74847 0.341064 0.794189 9.29538 0.794189 20.3411V215.267H138.683L162.833 194.895H21.6442V58.2114H238.134V122.083C244.796 114.925 254.797 114.925 254.797 114.925V20.3411C254.797 9.29538 245.842 0.341064 234.797 0.341064H20.7942ZM61.7368 107.346C67.2596 107.346 71.7368 102.869 71.7368 97.3457C71.7368 91.8229 67.2596 87.3457 61.7368 87.3457C56.214 87.3457 51.7368 91.8229 51.7368 97.3457C51.7368 102.869 56.214 107.346 61.7368 107.346ZM71.7368 137.092C71.7368 142.615 67.2596 147.092 61.7368 147.092C56.214 147.092 51.7368 142.615 51.7368 137.092C51.7368 131.569 56.214 127.092 61.7368 127.092C67.2596 127.092 71.7368 131.569 71.7368 137.092ZM100.519 126.406C94.996 126.406 90.5188 130.883 90.5188 136.406C90.5188 141.929 94.996 146.406 100.519 146.406H188.519C194.042 146.406 198.519 141.929 198.519 136.406C198.519 130.883 194.042 126.406 188.519 126.406H100.519ZM90.5188 97.804C90.5188 92.2811 94.996 87.804 100.519 87.804H188.519C194.042 87.804 198.519 92.2811 198.519 97.804C198.519 103.327 194.042 107.804 188.519 107.804H100.519C94.996 107.804 90.5188 103.327 90.5188 97.804ZM276.572 169.169C272.551 173.19 266.275 179.466 266.275 179.466L235.223 148.414L245.52 138.117C248.094 135.542 255.38 134.355 259.142 138.117L276.572 155.547C279.307 158.282 281.399 164.342 276.572 169.169ZM164.449 233.328L159.712 254.429L180.814 250.377V245.529H176.651V241.366H172.775V237.49H168.612V233.328H164.449ZM254.797 191.067L209.375 236.489L204.986 236.31V227.447H187.925V210.386L178.355 209.679V205.469L223.777 160.047L254.797 191.067Z" fill="#EEF4F6"/>
</svg>
