<svg width="234" height="234" viewBox="0 0 234 234" fill="none" xmlns="http://www.w3.org/2000/svg">
<path fill-rule="evenodd" clip-rule="evenodd" d="M0.481614 139.542C0.481542 129.663 0.481472 119.988 0.481445 110.205C0.481418 100.429 6.46584 98.4539 12.2321 98.4539H58.3953V58.1663C58.3953 53.3252 62.7602 48.9336 67.628 48.9336H117.988V11.1638C117.988 4.74477 121.352 0.252445 128.899 0.252533C145.176 0.252722 158.282 0.25256 171.029 0.252402C187.032 0.252203 202.469 0.252013 222.904 0.252533C229.51 0.252701 233.815 4.08813 233.815 11.1638V124.473C233.815 130.791 229.51 135.384 222.904 135.384H175.901V173.154C175.901 180.029 170.261 184.485 164.57 184.485H117.988V225.193C117.988 230.25 113.967 233.166 110.014 233.166H8.59945C4.98873 233.166 0.481432 228.937 0.481527 222.208C0.481981 190.145 0.481793 164.208 0.481614 139.542ZM78.5391 98.4592V67.4041H155.757V165.606H115.47V111.888C115.47 102.864 112.619 98.4592 102.04 98.4592H78.5391Z" fill="#EEF4F6"/>
</svg>
