<svg width="24" height="26" viewBox="0 0 24 26" fill="none" xmlns="http://www.w3.org/2000/svg">
<g filter="url(#filter0_d_9_1578)">
<path fill-rule="evenodd" clip-rule="evenodd" d="M14.4455 0.614578C14.5652 0.688774 14.6742 0.761161 14.7682 0.826075L16.525 2.14603L19.9028 4.68395C20.0087 4.76839 20.1116 4.84996 20.2115 4.92923L20.2116 4.92934C21.2537 5.75597 21.9791 6.33143 22.5826 7.27949C22.9183 7.80681 22.9864 8.75337 23 9.06762V18.5829C22.9936 18.7999 22.9442 19.8646 22.5802 20.4363C21.9077 21.4929 21.14 21.6981 19.6315 21.6981H23V21.6996H17.9504C17.1296 21.695 16.7048 21.5718 16.3316 20.9855C16.1405 20.6853 16.1026 20.145 16.0952 19.9702V15.2712H9.90475L9.90475 19.9141C9.90475 19.9141 9.89681 20.6239 9.66666 20.9855C9.2935 21.5718 8.86861 21.695 8.0478 21.6996H3V5.98535H3.07394L3 6.01769V9.1722C3 9.1722 3.01404 7.91826 3.42066 7.27949C4.02416 6.33143 4.7496 5.75597 5.79165 4.92935C5.91092 4.83474 6.03433 4.73684 6.16219 4.63471L6.13674 4.64584L8.04967 3.10768L10.4058 1.21317L10.4298 1.19382C10.424 1.2005 10.421 1.20401 10.421 1.20401C10.5169 1.12777 10.61 1.05154 10.7016 0.976538C10.7313 0.952195 10.7609 0.927981 10.7904 0.903939L11.01 0.727329C11.5317 0.317045 12.0512 -0.00496433 12.8163 -1.68621e-05C13.2623 0.0028668 13.7874 0.234184 14.2237 0.482614L14.4455 0.614578ZM23 5.98535V6.01625L22.9294 5.98535H23ZM10.738 21.6996H15.2602L15.2602 21.6997H10.7381L10.738 21.6996ZM3.00001 21.6981H6.36942C4.86095 21.6981 4.09324 21.4929 3.42066 20.4363C3.01404 19.7976 3.00001 18.5436 3.00001 18.5436V21.6981Z" fill="#EEF4F6"/>
<path d="M9.90215 17.056L9.90215 15.2614L12.6272 15.2614C11.9063 15.2614 10.8757 15.3778 10.4855 15.772C10.0953 16.1662 9.90215 16.5558 9.90215 17.056Z" fill="#FE9016"/>
<path d="M16.155 17.056L16.155 15.2614L13.4299 15.2614C14.1508 15.2614 15.1814 15.3778 15.5716 15.772C15.9618 16.1662 16.155 16.5558 16.155 17.056Z" fill="#FE9016"/>
</g>
<defs>
<filter id="filter0_d_9_1578" x="0" y="-7.62939e-05" width="24" height="25.6998" filterUnits="userSpaceOnUse" color-interpolation-filters="sRGB">
<feFlood flood-opacity="0" result="BackgroundImageFix"/>
<feColorMatrix in="SourceAlpha" type="matrix" values="0 0 0 0 0 0 0 0 0 0 0 0 0 0 0 0 0 0 127 0" result="hardAlpha"/>
<feOffset dx="-1" dy="2"/>
<feGaussianBlur stdDeviation="1"/>
<feComposite in2="hardAlpha" operator="out"/>
<feColorMatrix type="matrix" values="0 0 0 0 0 0 0 0 0 0 0 0 0 0 0 0 0 0 0.25 0"/>
<feBlend mode="normal" in2="BackgroundImageFix" result="effect1_dropShadow_9_1578"/>
<feBlend mode="normal" in="SourceGraphic" in2="effect1_dropShadow_9_1578" result="shape"/>
</filter>
</defs>
</svg>
