<svg width="31" height="31" viewBox="0 0 31 31" fill="none" xmlns="http://www.w3.org/2000/svg">
<path fill-rule="evenodd" clip-rule="evenodd" d="M30.1078 17.1335L26.7596 18.0811C26.4828 19.531 25.9181 20.8789 25.1274 22.0628L26.8281 25.1063C27.0954 25.5845 27.0125 26.1821 26.6251 26.5694C26.2377 26.9568 25.6402 27.0397 25.1619 26.7725L22.121 25.0731C20.9351 25.8674 19.5843 26.4346 18.1308 26.7125L17.1778 30.0796C17.0286 30.6068 16.5475 30.9706 15.9996 30.9706C15.4518 30.9706 14.9706 30.6068 14.8215 30.0796L13.8594 26.6804C12.4353 26.3855 11.113 25.8123 9.95211 25.02L6.8505 26.7533C6.37228 27.0205 5.77474 26.9376 5.38736 26.5502C4.99999 26.1628 4.91706 25.5653 5.1843 25.0871L6.94315 21.9397C6.20139 20.7958 5.66867 19.5039 5.39912 18.1179L1.88979 17.1247C1.36267 16.9755 0.998778 16.4943 0.998778 15.9465C0.998778 15.3987 1.36266 14.9175 1.88979 14.7683L5.43482 13.765C5.72169 12.4103 6.26073 11.1486 7.00052 10.0315L5.194 6.79875C4.92675 6.32053 5.00968 5.72299 5.39706 5.33561C5.78443 4.94824 6.38197 4.86531 6.8602 5.13255L10.0971 6.9414C11.2135 6.20549 12.4735 5.66975 13.826 5.3853L14.8284 1.84334C14.9776 1.31622 15.4588 0.952335 16.0066 0.952335C16.5544 0.952335 17.0356 1.31622 17.1848 1.84335L18.1788 5.35547C19.5636 5.62674 20.8542 6.16078 21.9967 6.90353L25.1485 5.1422C25.6267 4.87496 26.2243 4.95789 26.6117 5.34526C26.999 5.73264 27.082 6.33018 26.8147 6.8084L25.0761 9.91969C25.8648 11.0793 26.4353 12.3993 26.7284 13.8207L30.1078 14.7771C30.6349 14.9263 30.9988 15.4075 30.9988 15.9553C30.9988 16.5031 30.6349 16.9843 30.1078 17.1335ZM8.19878 16.0293C8.19878 11.679 11.7254 8.15233 16.0758 8.15233C20.4261 8.15233 23.9528 11.679 23.9528 16.0293C23.9528 20.3797 20.4261 23.9063 16.0758 23.9063C11.7254 23.9063 8.19878 20.3797 8.19878 16.0293Z" fill="#FE9016"/>
</svg>
